<mxfile host="Electron" modified="2023-08-04T12:22:47.545Z" agent="Mozilla/5.0 (Windows NT 10.0; Win64; x64) AppleWebKit/537.36 (KHTML, like Gecko) draw.io/21.6.5 Chrome/114.0.5735.243 Electron/25.3.1 Safari/537.36" etag="DS8solvS4edwSGrYL5M9" version="21.6.5" type="device">
  <diagram name="Seite-1" id="blHQYpt6hxo801W7a6FA">
    <mxGraphModel dx="1634" dy="955" grid="1" gridSize="10" guides="1" tooltips="1" connect="1" arrows="1" fold="1" page="1" pageScale="1" pageWidth="827" pageHeight="1169" math="0" shadow="0">
      <root>
        <mxCell id="0" />
        <mxCell id="1" parent="0" />
        <mxCell id="96H6yMDckHckP487OVIL-54" value="" style="rounded=0;whiteSpace=wrap;html=1;fillColor=none;" parent="1" vertex="1">
          <mxGeometry x="580" y="430" width="208.95" height="430" as="geometry" />
        </mxCell>
        <mxCell id="96H6yMDckHckP487OVIL-1" value="&lt;font style=&quot;font-size: 22px;&quot;&gt;&lt;b&gt;Producers&lt;/b&gt;&lt;/font&gt;" style="rounded=0;whiteSpace=wrap;html=1;fillColor=#ffe6cc;strokeColor=#d79b00;" parent="1" vertex="1">
          <mxGeometry x="88.95" y="670" width="120" height="30" as="geometry" />
        </mxCell>
        <mxCell id="96H6yMDckHckP487OVIL-35" value="&lt;font style=&quot;font-size: 16px;&quot;&gt;Order&lt;/font&gt;" style="edgeStyle=orthogonalEdgeStyle;rounded=0;orthogonalLoop=1;jettySize=auto;html=1;exitX=0;exitY=0.75;exitDx=0;exitDy=0;entryX=0;entryY=0.25;entryDx=0;entryDy=0;dashed=1;" parent="1" source="96H6yMDckHckP487OVIL-5" target="96H6yMDckHckP487OVIL-6" edge="1">
          <mxGeometry relative="1" as="geometry">
            <Array as="points">
              <mxPoint x="38.95" y="483" />
              <mxPoint x="38.95" y="584" />
            </Array>
          </mxGeometry>
        </mxCell>
        <mxCell id="96H6yMDckHckP487OVIL-5" value="&lt;font style=&quot;font-size: 22px;&quot;&gt;Customer&lt;/font&gt;" style="rounded=0;whiteSpace=wrap;html=1;" parent="1" vertex="1">
          <mxGeometry x="88.95" y="460" width="120" height="30" as="geometry" />
        </mxCell>
        <mxCell id="96H6yMDckHckP487OVIL-17" value="saving order" style="edgeStyle=orthogonalEdgeStyle;rounded=0;orthogonalLoop=1;jettySize=auto;html=1;entryX=0;entryY=0.5;entryDx=0;entryDy=0;entryPerimeter=0;dashed=1;fontSize=16;fillColor=#f8cecc;strokeColor=#b85450;" parent="1" source="96H6yMDckHckP487OVIL-6" target="LQiqg7rTzXAwdd9is6cZ-1" edge="1">
          <mxGeometry relative="1" as="geometry">
            <mxPoint as="offset" />
          </mxGeometry>
        </mxCell>
        <mxCell id="96H6yMDckHckP487OVIL-23" value="navigate" style="edgeStyle=orthogonalEdgeStyle;rounded=0;orthogonalLoop=1;jettySize=auto;html=1;entryX=0;entryY=0.5;entryDx=0;entryDy=0;fontSize=16;dashed=1;exitX=0;exitY=0.75;exitDx=0;exitDy=0;" parent="1" source="96H6yMDckHckP487OVIL-6" target="96H6yMDckHckP487OVIL-7" edge="1">
          <mxGeometry relative="1" as="geometry">
            <Array as="points">
              <mxPoint x="38.95" y="599" />
              <mxPoint x="38.95" y="775" />
            </Array>
          </mxGeometry>
        </mxCell>
        <mxCell id="96H6yMDckHckP487OVIL-6" value="&lt;font style=&quot;font-size: 22px;&quot;&gt;Taxi driver&lt;/font&gt;" style="rounded=0;whiteSpace=wrap;html=1;fillColor=#ffe6cc;strokeColor=#d79b00;" parent="1" vertex="1">
          <mxGeometry x="88.95" y="576" width="120" height="30" as="geometry" />
        </mxCell>
        <mxCell id="96H6yMDckHckP487OVIL-19" value="saving route" style="edgeStyle=orthogonalEdgeStyle;rounded=0;orthogonalLoop=1;jettySize=auto;html=1;entryX=0;entryY=0.5;entryDx=0;entryDy=0;entryPerimeter=0;dashed=1;fontSize=16;fillColor=#f8cecc;strokeColor=#b85450;" parent="1" source="96H6yMDckHckP487OVIL-7" target="LQiqg7rTzXAwdd9is6cZ-4" edge="1">
          <mxGeometry relative="1" as="geometry" />
        </mxCell>
        <mxCell id="96H6yMDckHckP487OVIL-7" value="&lt;font style=&quot;font-size: 22px;&quot;&gt;Navigator&lt;/font&gt;" style="rounded=0;whiteSpace=wrap;html=1;fillColor=#ffe6cc;strokeColor=#d79b00;" parent="1" vertex="1">
          <mxGeometry x="88.95" y="760" width="120" height="30" as="geometry" />
        </mxCell>
        <mxCell id="96H6yMDckHckP487OVIL-15" value="" style="group" parent="1" vertex="1" connectable="0">
          <mxGeometry x="618.95" y="790" width="170" height="100" as="geometry" />
        </mxCell>
        <mxCell id="LQiqg7rTzXAwdd9is6cZ-6" value="" style="shape=cylinder3;whiteSpace=wrap;html=1;boundedLbl=1;backgroundOutline=1;size=15;" parent="96H6yMDckHckP487OVIL-15" vertex="1">
          <mxGeometry x="-5" width="140" height="60" as="geometry" />
        </mxCell>
        <mxCell id="LQiqg7rTzXAwdd9is6cZ-7" value="&lt;span style=&quot;font-size: 16px;&quot;&gt;Datawarehouse&lt;/span&gt;" style="text;html=1;strokeColor=none;fillColor=none;align=center;verticalAlign=middle;whiteSpace=wrap;rounded=0;" parent="96H6yMDckHckP487OVIL-15" vertex="1">
          <mxGeometry x="36" y="25" width="60" height="30" as="geometry" />
        </mxCell>
        <mxCell id="96H6yMDckHckP487OVIL-87" value="&lt;font style=&quot;font-size: 22px;&quot;&gt;OLAP (analytical)&lt;/font&gt;" style="rounded=0;whiteSpace=wrap;html=1;fillColor=#eeeeee;strokeColor=#36393d;" parent="96H6yMDckHckP487OVIL-15" vertex="1">
          <mxGeometry x="-40" y="70" width="210" height="30" as="geometry" />
        </mxCell>
        <mxCell id="96H6yMDckHckP487OVIL-21" value="" style="group" parent="1" vertex="1" connectable="0">
          <mxGeometry x="398.95" y="576" width="105" height="129" as="geometry" />
        </mxCell>
        <mxCell id="LQiqg7rTzXAwdd9is6cZ-1" value="" style="shape=cylinder3;whiteSpace=wrap;html=1;boundedLbl=1;backgroundOutline=1;size=15;fillColor=#d5e8d4;strokeColor=#82b366;" parent="96H6yMDckHckP487OVIL-21" vertex="1">
          <mxGeometry y="-30" width="60" height="90" as="geometry" />
        </mxCell>
        <mxCell id="LQiqg7rTzXAwdd9is6cZ-3" value="OrderDB" style="text;html=1;strokeColor=none;fillColor=none;align=center;verticalAlign=middle;whiteSpace=wrap;rounded=0;" parent="96H6yMDckHckP487OVIL-21" vertex="1">
          <mxGeometry y="14" width="60" height="30" as="geometry" />
        </mxCell>
        <mxCell id="96H6yMDckHckP487OVIL-59" style="edgeStyle=orthogonalEdgeStyle;rounded=0;orthogonalLoop=1;jettySize=auto;html=1;entryX=0.5;entryY=1;entryDx=0;entryDy=0;dashed=1;" parent="1" source="LQiqg7rTzXAwdd9is6cZ-8" target="96H6yMDckHckP487OVIL-48" edge="1">
          <mxGeometry relative="1" as="geometry">
            <Array as="points">
              <mxPoint x="693.95" y="540" />
              <mxPoint x="693.95" y="540" />
            </Array>
          </mxGeometry>
        </mxCell>
        <mxCell id="LQiqg7rTzXAwdd9is6cZ-8" value="" style="shape=cube;whiteSpace=wrap;html=1;boundedLbl=1;backgroundOutline=1;darkOpacity=0.05;darkOpacity2=0.1;size=10;" parent="1" vertex="1">
          <mxGeometry x="653.95" y="540" width="50" height="50" as="geometry" />
        </mxCell>
        <mxCell id="96H6yMDckHckP487OVIL-45" style="edgeStyle=orthogonalEdgeStyle;rounded=0;orthogonalLoop=1;jettySize=auto;html=1;entryX=0.5;entryY=0;entryDx=0;entryDy=0;entryPerimeter=0;dashed=1;" parent="1" source="96H6yMDckHckP487OVIL-26" target="LQiqg7rTzXAwdd9is6cZ-6" edge="1">
          <mxGeometry relative="1" as="geometry" />
        </mxCell>
        <mxCell id="96H6yMDckHckP487OVIL-26" value="&lt;font style=&quot;font-size: 22px;&quot;&gt;ETL&lt;/font&gt;" style="swimlane;fontStyle=0;childLayout=stackLayout;horizontal=1;startSize=30;horizontalStack=0;resizeParent=1;resizeParentMax=0;resizeLast=0;collapsible=1;marginBottom=0;whiteSpace=wrap;html=1;fillColor=#f5f5f5;fontColor=#333333;strokeColor=#666666;" parent="1" vertex="1">
          <mxGeometry x="638.95" y="640" width="90" height="120" as="geometry">
            <mxRectangle x="520" y="411" width="80" height="40" as="alternateBounds" />
          </mxGeometry>
        </mxCell>
        <mxCell id="96H6yMDckHckP487OVIL-27" value="&lt;font style=&quot;font-size: 16px;&quot;&gt;Extract&lt;/font&gt;" style="text;strokeColor=#666666;fillColor=#f5f5f5;align=center;verticalAlign=middle;spacingLeft=4;spacingRight=4;overflow=hidden;points=[[0,0.5],[1,0.5]];portConstraint=eastwest;rotatable=0;whiteSpace=wrap;html=1;fontColor=#333333;" parent="96H6yMDckHckP487OVIL-26" vertex="1">
          <mxGeometry y="30" width="90" height="30" as="geometry" />
        </mxCell>
        <mxCell id="96H6yMDckHckP487OVIL-28" value="&lt;font style=&quot;font-size: 16px;&quot;&gt;Transform&lt;br&gt;&lt;/font&gt;" style="text;strokeColor=#666666;fillColor=#f5f5f5;align=center;verticalAlign=middle;spacingLeft=4;spacingRight=4;overflow=hidden;points=[[0,0.5],[1,0.5]];portConstraint=eastwest;rotatable=0;whiteSpace=wrap;html=1;fontColor=#333333;" parent="96H6yMDckHckP487OVIL-26" vertex="1">
          <mxGeometry y="60" width="90" height="30" as="geometry" />
        </mxCell>
        <mxCell id="96H6yMDckHckP487OVIL-29" value="&lt;font style=&quot;font-size: 16px;&quot;&gt;Load&lt;/font&gt;" style="text;strokeColor=#666666;fillColor=#f5f5f5;align=center;verticalAlign=middle;spacingLeft=4;spacingRight=4;overflow=hidden;points=[[0,0.5],[1,0.5]];portConstraint=eastwest;rotatable=0;whiteSpace=wrap;html=1;fontColor=#333333;" parent="96H6yMDckHckP487OVIL-26" vertex="1">
          <mxGeometry y="90" width="90" height="30" as="geometry" />
        </mxCell>
        <mxCell id="96H6yMDckHckP487OVIL-30" value="&lt;font style=&quot;font-size: 22px;&quot;&gt;&lt;b&gt;Event&lt;/b&gt;&lt;/font&gt;" style="rounded=0;whiteSpace=wrap;html=1;fillColor=#f8cecc;strokeColor=#b85450;" parent="1" vertex="1">
          <mxGeometry x="228.95" y="670" width="120" height="30" as="geometry" />
        </mxCell>
        <mxCell id="LQiqg7rTzXAwdd9is6cZ-4" value="" style="shape=cylinder3;whiteSpace=wrap;html=1;boundedLbl=1;backgroundOutline=1;size=15;fillColor=#d5e8d4;strokeColor=#82b366;" parent="1" vertex="1">
          <mxGeometry x="400.95" y="730" width="60" height="90" as="geometry" />
        </mxCell>
        <mxCell id="96H6yMDckHckP487OVIL-44" style="edgeStyle=orthogonalEdgeStyle;rounded=0;orthogonalLoop=1;jettySize=auto;html=1;entryX=0;entryY=0.5;entryDx=0;entryDy=0;dashed=1;" parent="1" source="LQiqg7rTzXAwdd9is6cZ-5" target="96H6yMDckHckP487OVIL-27" edge="1">
          <mxGeometry relative="1" as="geometry">
            <Array as="points">
              <mxPoint x="538.95" y="785" />
              <mxPoint x="538.95" y="685" />
            </Array>
          </mxGeometry>
        </mxCell>
        <mxCell id="LQiqg7rTzXAwdd9is6cZ-5" value="GeoDB" style="text;html=1;strokeColor=none;fillColor=none;align=center;verticalAlign=middle;whiteSpace=wrap;rounded=0;" parent="1" vertex="1">
          <mxGeometry x="400.95" y="770" width="60" height="30" as="geometry" />
        </mxCell>
        <mxCell id="96H6yMDckHckP487OVIL-24" value="&lt;font style=&quot;font-size: 22px;&quot;&gt;&lt;b&gt;Consumer&lt;/b&gt;&lt;/font&gt;" style="rounded=0;whiteSpace=wrap;html=1;fillColor=#d5e8d4;strokeColor=#82b366;" parent="1" vertex="1">
          <mxGeometry x="370.95" y="670" width="120" height="30" as="geometry" />
        </mxCell>
        <mxCell id="96H6yMDckHckP487OVIL-25" style="edgeStyle=orthogonalEdgeStyle;rounded=0;orthogonalLoop=1;jettySize=auto;html=1;exitX=0.5;exitY=1;exitDx=0;exitDy=0;" parent="1" source="96H6yMDckHckP487OVIL-24" target="96H6yMDckHckP487OVIL-24" edge="1">
          <mxGeometry relative="1" as="geometry" />
        </mxCell>
        <mxCell id="96H6yMDckHckP487OVIL-42" style="edgeStyle=orthogonalEdgeStyle;rounded=0;orthogonalLoop=1;jettySize=auto;html=1;entryX=0;entryY=0.5;entryDx=0;entryDy=0;dashed=1;" parent="1" source="LQiqg7rTzXAwdd9is6cZ-3" target="96H6yMDckHckP487OVIL-27" edge="1">
          <mxGeometry relative="1" as="geometry">
            <Array as="points">
              <mxPoint x="538.95" y="605" />
              <mxPoint x="538.95" y="685" />
            </Array>
          </mxGeometry>
        </mxCell>
        <mxCell id="96H6yMDckHckP487OVIL-48" value="&lt;font style=&quot;font-size: 22px;&quot;&gt;Buisness Analyst&lt;/font&gt;" style="rounded=0;whiteSpace=wrap;html=1;fillColor=#f5f5f5;strokeColor=#666666;fontColor=#333333;" parent="1" vertex="1">
          <mxGeometry x="593.95" y="460" width="180" height="30" as="geometry" />
        </mxCell>
        <mxCell id="96H6yMDckHckP487OVIL-47" value="&lt;font style=&quot;font-size: 16px;&quot;&gt;OLAP-Cube&lt;/font&gt;" style="text;html=1;strokeColor=none;fillColor=none;align=center;verticalAlign=middle;whiteSpace=wrap;rounded=0;" parent="1" vertex="1">
          <mxGeometry x="635" y="590" width="93.95" height="30" as="geometry" />
        </mxCell>
        <mxCell id="96H6yMDckHckP487OVIL-58" style="edgeStyle=orthogonalEdgeStyle;rounded=0;orthogonalLoop=1;jettySize=auto;html=1;entryX=0;entryY=0;entryDx=50;entryDy=30;entryPerimeter=0;dashed=1;" parent="1" source="LQiqg7rTzXAwdd9is6cZ-6" target="LQiqg7rTzXAwdd9is6cZ-8" edge="1">
          <mxGeometry relative="1" as="geometry">
            <Array as="points">
              <mxPoint x="763.95" y="820" />
              <mxPoint x="763.95" y="570" />
            </Array>
          </mxGeometry>
        </mxCell>
        <mxCell id="96H6yMDckHckP487OVIL-53" value="" style="rounded=0;whiteSpace=wrap;html=1;fillColor=none;" parent="1" vertex="1">
          <mxGeometry x="220" y="430" width="360" height="430" as="geometry" />
        </mxCell>
        <mxCell id="96H6yMDckHckP487OVIL-86" value="&lt;font style=&quot;font-size: 22px;&quot;&gt;OLTP (transactional)&lt;/font&gt;" style="rounded=0;whiteSpace=wrap;html=1;fillColor=#eeeeee;strokeColor=#36393d;" parent="1" vertex="1">
          <mxGeometry x="220" y="860" width="360" height="30" as="geometry" />
        </mxCell>
        <mxCell id="96H6yMDckHckP487OVIL-124" value="" style="childLayout=tableLayout;recursiveResize=0;shadow=0;fillColor=none;fontSize=15;" parent="1" vertex="1">
          <mxGeometry x="20" y="890" width="768.95" height="234" as="geometry" />
        </mxCell>
        <mxCell id="96H6yMDckHckP487OVIL-129" style="shape=tableRow;horizontal=0;startSize=0;swimlaneHead=0;swimlaneBody=0;top=0;left=0;bottom=0;right=0;dropTarget=0;collapsible=0;recursiveResize=0;expand=0;fontStyle=0;fillColor=none;strokeColor=inherit;" parent="96H6yMDckHckP487OVIL-124" vertex="1">
          <mxGeometry width="768.95" height="46" as="geometry" />
        </mxCell>
        <mxCell id="96H6yMDckHckP487OVIL-130" value="Written by" style="connectable=0;recursiveResize=0;strokeColor=#36393d;fillColor=#eeeeee;align=center;whiteSpace=wrap;html=1;fontSize=16;fillStyle=hatch;" parent="96H6yMDckHckP487OVIL-129" vertex="1">
          <mxGeometry width="200" height="46" as="geometry">
            <mxRectangle width="200" height="46" as="alternateBounds" />
          </mxGeometry>
        </mxCell>
        <mxCell id="96H6yMDckHckP487OVIL-131" value="Users" style="connectable=0;recursiveResize=0;strokeColor=inherit;fillColor=none;align=center;whiteSpace=wrap;html=1;fontSize=16;" parent="96H6yMDckHckP487OVIL-129" vertex="1">
          <mxGeometry x="200" width="360" height="46" as="geometry">
            <mxRectangle width="360" height="46" as="alternateBounds" />
          </mxGeometry>
        </mxCell>
        <mxCell id="96H6yMDckHckP487OVIL-132" value="ETL" style="connectable=0;recursiveResize=0;strokeColor=inherit;fillColor=none;align=center;whiteSpace=wrap;html=1;fontSize=16;" parent="96H6yMDckHckP487OVIL-129" vertex="1">
          <mxGeometry x="560" width="209" height="46" as="geometry">
            <mxRectangle width="209" height="46" as="alternateBounds" />
          </mxGeometry>
        </mxCell>
        <mxCell id="96H6yMDckHckP487OVIL-133" style="shape=tableRow;horizontal=0;startSize=0;swimlaneHead=0;swimlaneBody=0;top=0;left=0;bottom=0;right=0;dropTarget=0;collapsible=0;recursiveResize=0;expand=0;fontStyle=0;fillColor=none;strokeColor=inherit;" parent="96H6yMDckHckP487OVIL-124" vertex="1">
          <mxGeometry y="46" width="768.95" height="47" as="geometry" />
        </mxCell>
        <mxCell id="96H6yMDckHckP487OVIL-134" value="Used by" style="connectable=0;recursiveResize=0;strokeColor=#36393d;fillColor=#eeeeee;align=center;whiteSpace=wrap;html=1;fontSize=16;fillStyle=hatch;" parent="96H6yMDckHckP487OVIL-133" vertex="1">
          <mxGeometry width="200" height="47" as="geometry">
            <mxRectangle width="200" height="47" as="alternateBounds" />
          </mxGeometry>
        </mxCell>
        <mxCell id="96H6yMDckHckP487OVIL-135" value="End users" style="connectable=0;recursiveResize=0;strokeColor=inherit;fillColor=none;align=center;whiteSpace=wrap;html=1;fontSize=16;" parent="96H6yMDckHckP487OVIL-133" vertex="1">
          <mxGeometry x="200" width="360" height="47" as="geometry">
            <mxRectangle width="360" height="47" as="alternateBounds" />
          </mxGeometry>
        </mxCell>
        <mxCell id="96H6yMDckHckP487OVIL-136" value="Analysts" style="connectable=0;recursiveResize=0;strokeColor=inherit;fillColor=none;align=center;whiteSpace=wrap;html=1;fontSize=16;" parent="96H6yMDckHckP487OVIL-133" vertex="1">
          <mxGeometry x="560" width="209" height="47" as="geometry">
            <mxRectangle width="209" height="47" as="alternateBounds" />
          </mxGeometry>
        </mxCell>
        <mxCell id="96H6yMDckHckP487OVIL-137" style="shape=tableRow;horizontal=0;startSize=0;swimlaneHead=0;swimlaneBody=0;top=0;left=0;bottom=0;right=0;dropTarget=0;collapsible=0;recursiveResize=0;expand=0;fontStyle=0;fillColor=none;strokeColor=inherit;" parent="96H6yMDckHckP487OVIL-124" vertex="1">
          <mxGeometry y="93" width="768.95" height="47" as="geometry" />
        </mxCell>
        <mxCell id="96H6yMDckHckP487OVIL-138" value="Represented data" style="connectable=0;recursiveResize=0;strokeColor=#36393d;fillColor=#eeeeee;align=center;whiteSpace=wrap;html=1;fontSize=16;fillStyle=hatch;" parent="96H6yMDckHckP487OVIL-137" vertex="1">
          <mxGeometry width="200" height="47" as="geometry">
            <mxRectangle width="200" height="47" as="alternateBounds" />
          </mxGeometry>
        </mxCell>
        <mxCell id="96H6yMDckHckP487OVIL-139" value="Latest state" style="connectable=0;recursiveResize=0;strokeColor=inherit;fillColor=none;align=center;whiteSpace=wrap;html=1;fontSize=16;" parent="96H6yMDckHckP487OVIL-137" vertex="1">
          <mxGeometry x="200" width="360" height="47" as="geometry">
            <mxRectangle width="360" height="47" as="alternateBounds" />
          </mxGeometry>
        </mxCell>
        <mxCell id="96H6yMDckHckP487OVIL-140" value="historical or event over time" style="connectable=0;recursiveResize=0;strokeColor=inherit;fillColor=none;align=center;whiteSpace=wrap;html=1;fontSize=16;" parent="96H6yMDckHckP487OVIL-137" vertex="1">
          <mxGeometry x="560" width="209" height="47" as="geometry">
            <mxRectangle width="209" height="47" as="alternateBounds" />
          </mxGeometry>
        </mxCell>
        <mxCell id="96H6yMDckHckP487OVIL-141" style="shape=tableRow;horizontal=0;startSize=0;swimlaneHead=0;swimlaneBody=0;top=0;left=0;bottom=0;right=0;dropTarget=0;collapsible=0;recursiveResize=0;expand=0;fontStyle=0;fillColor=none;strokeColor=inherit;" parent="96H6yMDckHckP487OVIL-124" vertex="1">
          <mxGeometry y="140" width="768.95" height="47" as="geometry" />
        </mxCell>
        <mxCell id="96H6yMDckHckP487OVIL-142" value="Volume" style="connectable=0;recursiveResize=0;strokeColor=#36393d;fillColor=#eeeeee;align=center;whiteSpace=wrap;html=1;fontSize=16;fillStyle=hatch;" parent="96H6yMDckHckP487OVIL-141" vertex="1">
          <mxGeometry width="200" height="47" as="geometry">
            <mxRectangle width="200" height="47" as="alternateBounds" />
          </mxGeometry>
        </mxCell>
        <mxCell id="96H6yMDckHckP487OVIL-143" value="Gigabytes to Terabytes" style="connectable=0;recursiveResize=0;strokeColor=inherit;fillColor=none;align=center;whiteSpace=wrap;html=1;fontSize=16;" parent="96H6yMDckHckP487OVIL-141" vertex="1">
          <mxGeometry x="200" width="360" height="47" as="geometry">
            <mxRectangle width="360" height="47" as="alternateBounds" />
          </mxGeometry>
        </mxCell>
        <mxCell id="96H6yMDckHckP487OVIL-144" value="Terabytes to Petabytes" style="connectable=0;recursiveResize=0;strokeColor=inherit;fillColor=none;align=center;whiteSpace=wrap;html=1;fontSize=16;" parent="96H6yMDckHckP487OVIL-141" vertex="1">
          <mxGeometry x="560" width="209" height="47" as="geometry">
            <mxRectangle width="209" height="47" as="alternateBounds" />
          </mxGeometry>
        </mxCell>
        <mxCell id="96H6yMDckHckP487OVIL-125" value="" style="shape=tableRow;horizontal=0;startSize=0;swimlaneHead=0;swimlaneBody=0;top=0;left=0;bottom=0;right=0;dropTarget=0;collapsible=0;recursiveResize=0;expand=0;fontStyle=0;fillColor=none;strokeColor=inherit;" parent="96H6yMDckHckP487OVIL-124" vertex="1">
          <mxGeometry y="187" width="768.95" height="47" as="geometry" />
        </mxCell>
        <mxCell id="96H6yMDckHckP487OVIL-126" value="Agregate number of records" style="connectable=0;recursiveResize=0;strokeColor=#36393d;fillColor=#eeeeee;align=center;whiteSpace=wrap;html=1;fontSize=16;fillStyle=hatch;" parent="96H6yMDckHckP487OVIL-125" vertex="1">
          <mxGeometry width="200" height="47" as="geometry">
            <mxRectangle width="200" height="47" as="alternateBounds" />
          </mxGeometry>
        </mxCell>
        <mxCell id="96H6yMDckHckP487OVIL-127" value="Small" style="connectable=0;recursiveResize=0;strokeColor=inherit;fillColor=none;align=center;whiteSpace=wrap;html=1;fontSize=16;" parent="96H6yMDckHckP487OVIL-125" vertex="1">
          <mxGeometry x="200" width="360" height="47" as="geometry">
            <mxRectangle width="360" height="47" as="alternateBounds" />
          </mxGeometry>
        </mxCell>
        <mxCell id="96H6yMDckHckP487OVIL-128" value="Large" style="connectable=0;recursiveResize=0;strokeColor=inherit;fillColor=none;align=center;whiteSpace=wrap;html=1;fontSize=16;" parent="96H6yMDckHckP487OVIL-125" vertex="1">
          <mxGeometry x="560" width="209" height="47" as="geometry">
            <mxRectangle width="209" height="47" as="alternateBounds" />
          </mxGeometry>
        </mxCell>
      </root>
    </mxGraphModel>
  </diagram>
</mxfile>
